<mxfile host="65bd71144e">
    <diagram id="Nt-CZ0WrJplxAKZ9QQZ5" name="HaMeR流程">
        <mxGraphModel dx="409" dy="238" grid="1" gridSize="10" guides="1" tooltips="1" connect="1" arrows="1" fold="1" page="1" pageScale="1" pageWidth="827" pageHeight="1169" math="0" shadow="0">
            <root>
                <mxCell id="0"/>
                <mxCell id="1" parent="0"/>
                <mxCell id="2" value="HaMeR: 从2D到3D的坐标变换流程" style="text;html=1;strokeColor=none;fillColor=none;align=center;verticalAlign=middle;whiteSpace=wrap;rounded=0;fontSize=18;fontStyle=1" parent="1" vertex="1">
                    <mxGeometry x="160" y="40" width="520" height="30" as="geometry"/>
                </mxCell>
                <mxCell id="3" value="2D图像" style="rounded=1;whiteSpace=wrap;html=1;fillColor=#dae8fc;strokeColor=#6c8ebf;fontSize=14;fontStyle=1" parent="1" vertex="1">
                    <mxGeometry x="40" y="120" width="120" height="60" as="geometry"/>
                </mxCell>
                <mxCell id="4" value="HaMeR网络" style="rounded=1;whiteSpace=wrap;html=1;fillColor=#ffe6cc;strokeColor=#d79b00;fontSize=14;fontStyle=1" parent="1" vertex="1">
                    <mxGeometry x="240" y="120" width="120" height="60" as="geometry"/>
                </mxCell>
                <mxCell id="5" value="相机坐标系下的&lt;br&gt;3D手部模型" style="rounded=1;whiteSpace=wrap;html=1;fillColor=#d5e8d4;strokeColor=#82b366;fontSize=14;fontStyle=1" parent="1" vertex="1">
                    <mxGeometry x="440" y="120" width="140" height="60" as="geometry"/>
                </mxCell>
                <mxCell id="6" value="全局坐标系下的&lt;br&gt;3D手部模型" style="rounded=1;whiteSpace=wrap;html=1;fillColor=#e1d5e7;strokeColor=#9673a6;fontSize=14;fontStyle=1" parent="1" vertex="1">
                    <mxGeometry x="660" y="120" width="140" height="60" as="geometry"/>
                </mxCell>
                <mxCell id="7" value="" style="endArrow=block;html=1;fontSize=12;exitX=1;exitY=0.5;exitDx=0;exitDy=0;entryX=0;entryY=0.5;entryDx=0;entryDy=0;endFill=1;strokeWidth=2;" parent="1" source="3" target="4" edge="1">
                    <mxGeometry width="50" height="50" relative="1" as="geometry">
                        <mxPoint x="190" y="200" as="sourcePoint"/>
                        <mxPoint x="240" y="150" as="targetPoint"/>
                    </mxGeometry>
                </mxCell>
                <mxCell id="8" value="" style="endArrow=block;html=1;fontSize=12;exitX=1;exitY=0.5;exitDx=0;exitDy=0;entryX=0;entryY=0.5;entryDx=0;entryDy=0;endFill=1;strokeWidth=2;" parent="1" source="4" target="5" edge="1">
                    <mxGeometry width="50" height="50" relative="1" as="geometry">
                        <mxPoint x="380" y="200" as="sourcePoint"/>
                        <mxPoint x="430" y="150" as="targetPoint"/>
                    </mxGeometry>
                </mxCell>
                <mxCell id="9" value="" style="endArrow=block;html=1;fontSize=12;exitX=1;exitY=0.5;exitDx=0;exitDy=0;entryX=0;entryY=0.5;entryDx=0;entryDy=0;endFill=1;strokeWidth=2;" parent="1" source="5" target="6" edge="1">
                    <mxGeometry width="50" height="50" relative="1" as="geometry">
                        <mxPoint x="600" y="200" as="sourcePoint"/>
                        <mxPoint x="650" y="150" as="targetPoint"/>
                    </mxGeometry>
                </mxCell>
                <mxCell id="10" value="提取特征，&lt;br&gt;预测MANO参数" style="text;html=1;strokeColor=none;fillColor=none;align=center;verticalAlign=middle;whiteSpace=wrap;rounded=0;fontSize=12;" parent="1" vertex="1">
                    <mxGeometry x="160" y="90" width="120" height="30" as="geometry"/>
                </mxCell>
                <mxCell id="11" value="预测相机参数&lt;br&gt;(pred_cam)" style="text;html=1;strokeColor=none;fillColor=none;align=center;verticalAlign=middle;whiteSpace=wrap;rounded=0;fontSize=12;" parent="1" vertex="1">
                    <mxGeometry x="360" y="90" width="80" height="30" as="geometry"/>
                </mxCell>
                <mxCell id="12" value="应用相机变换&lt;br&gt;(加上相机位置)" style="text;html=1;strokeColor=none;fillColor=none;align=center;verticalAlign=middle;whiteSpace=wrap;rounded=0;fontSize=12;" parent="1" vertex="1">
                    <mxGeometry x="580" y="90" width="80" height="30" as="geometry"/>
                </mxCell>
                <mxCell id="13" value="相机坐标系转换流程" style="swimlane;fontStyle=0;childLayout=stackLayout;horizontal=1;startSize=30;horizontalStack=0;resizeParent=1;resizeChild=0;resizeLast=0;collapsible=1;marginBottom=0;rounded=0;fontSize=14;fillColor=#fff2cc;strokeColor=#d6b656;" parent="1" vertex="1">
                    <mxGeometry x="120" y="220" width="600" height="140" as="geometry"/>
                </mxCell>
                <mxCell id="14" value="1. 相机坐标系→全局坐标系: transformed_keypoints = keypoints + camera_translation" style="text;strokeColor=none;fillColor=none;align=left;verticalAlign=middle;spacingLeft=4;spacingRight=4;overflow=hidden;points=[[0,0.5],[1,0.5]];portConstraint=eastwest;rotatable=0;fontSize=14;" parent="13" vertex="1">
                    <mxGeometry y="30" width="600" height="30" as="geometry"/>
                </mxCell>
                <mxCell id="15" value="2. 应用180度绕X轴旋转: transformed_keypoints = dot(transformed_keypoints, rot_matrix)" style="text;strokeColor=none;fillColor=none;align=left;verticalAlign=middle;spacingLeft=4;spacingRight=4;overflow=hidden;points=[[0,0.5],[1,0.5]];portConstraint=eastwest;rotatable=0;fontSize=14;" parent="13" vertex="1">
                    <mxGeometry y="60" width="600" height="30" as="geometry"/>
                </mxCell>
                <mxCell id="16" value="3. 此时点变换到了全局坐标系，可用于3D渲染" style="text;strokeColor=none;fillColor=none;align=left;verticalAlign=middle;spacingLeft=4;spacingRight=4;overflow=hidden;points=[[0,0.5],[1,0.5]];portConstraint=eastwest;rotatable=0;fontSize=14;" parent="13" vertex="1">
                    <mxGeometry y="90" width="600" height="30" as="geometry"/>
                </mxCell>
                <mxCell id="17" value="4. 全局坐标系中的点可用于生成OBJ文件等3D模型格式" style="text;strokeColor=none;fillColor=none;align=left;verticalAlign=middle;spacingLeft=4;spacingRight=4;overflow=hidden;points=[[0,0.5],[1,0.5]];portConstraint=eastwest;rotatable=0;fontSize=14;" parent="13" vertex="1">
                    <mxGeometry y="120" width="600" height="20" as="geometry"/>
                </mxCell>
                <mxCell id="18" value="out[&#39;pred_keypoints_3d&#39;]" style="text;html=1;strokeColor=none;fillColor=none;align=center;verticalAlign=middle;whiteSpace=wrap;rounded=0;fontSize=12;" parent="1" vertex="1">
                    <mxGeometry x="440" y="90" width="140" height="20" as="geometry"/>
                </mxCell>
                <mxCell id="19" value="HaMeR: 实际代码中的关键步骤" style="swimlane;fontStyle=0;childLayout=stackLayout;horizontal=1;startSize=30;horizontalStack=0;resizeParent=1;resizeChild=0;resizeLast=0;collapsible=1;marginBottom=0;rounded=0;fontSize=14;fillColor=#f5f5f5;strokeColor=#666666;fontColor=#333333;" parent="1" vertex="1">
                    <mxGeometry x="120" y="380" width="600" height="160" as="geometry"/>
                </mxCell>
                <mxCell id="20" value="1. 从模型获取相机参数和手部模型: out = model(batch)" style="text;strokeColor=none;fillColor=none;align=left;verticalAlign=middle;spacingLeft=4;spacingRight=4;overflow=hidden;points=[[0,0.5],[1,0.5]];portConstraint=eastwest;rotatable=0;fontSize=14;" parent="19" vertex="1">
                    <mxGeometry y="30" width="600" height="30" as="geometry"/>
                </mxCell>
                <mxCell id="21" value="2. 提取预测结果: pred_cam = out[&#39;pred_cam&#39;]" style="text;strokeColor=none;fillColor=none;align=left;verticalAlign=middle;spacingLeft=4;spacingRight=4;overflow=hidden;points=[[0,0.5],[1,0.5]];portConstraint=eastwest;rotatable=0;fontSize=14;" parent="19" vertex="1">
                    <mxGeometry y="60" width="600" height="30" as="geometry"/>
                </mxCell>
                <mxCell id="22" value="3. 从裁剪空间到完整图像空间: pred_cam_t_full = cam_crop_to_full(...)" style="text;strokeColor=none;fillColor=none;align=left;verticalAlign=middle;spacingLeft=4;spacingRight=4;overflow=hidden;points=[[0,0.5],[1,0.5]];portConstraint=eastwest;rotatable=0;fontSize=14;" parent="19" vertex="1">
                    <mxGeometry y="90" width="600" height="30" as="geometry"/>
                </mxCell>
                <mxCell id="23" value="4. 渲染处理: renderer(out[&#39;pred_vertices&#39;][n], out[&#39;pred_cam_t&#39;][n], ...)" style="text;strokeColor=none;fillColor=none;align=left;verticalAlign=middle;spacingLeft=4;spacingRight=4;overflow=hidden;points=[[0,0.5],[1,0.5]];portConstraint=eastwest;rotatable=0;fontSize=14;" parent="19" vertex="1">
                    <mxGeometry y="120" width="600" height="40" as="geometry"/>
                </mxCell>
            </root>
        </mxGraphModel>
    </diagram>
    <diagram id="kNQCeKgMq7XxPm7t1TPa" name="3D到2D投影">
        <mxGraphModel dx="409" dy="238" grid="1" gridSize="10" guides="1" tooltips="1" connect="1" arrows="1" fold="1" page="1" pageScale="1" pageWidth="827" pageHeight="1169" math="0" shadow="0">
            <root>
                <mxCell id="0"/>
                <mxCell id="1" parent="0"/>
                <mxCell id="q7b9jXKkWBCrqFk2PePm-1" value="3D到2D投影: 从全局坐标系到图像坐标系" style="text;html=1;strokeColor=none;fillColor=none;align=center;verticalAlign=middle;whiteSpace=wrap;rounded=0;fontSize=18;fontStyle=1" parent="1" vertex="1">
                    <mxGeometry x="160" y="40" width="520" height="30" as="geometry"/>
                </mxCell>
                <mxCell id="q7b9jXKkWBCrqFk2PePm-2" value="全局坐标系下的&lt;br&gt;3D手部模型" style="rounded=1;whiteSpace=wrap;html=1;fillColor=#e1d5e7;strokeColor=#9673a6;fontSize=14;fontStyle=1" parent="1" vertex="1">
                    <mxGeometry x="40" y="120" width="140" height="60" as="geometry"/>
                </mxCell>
                <mxCell id="q7b9jXKkWBCrqFk2PePm-3" value="相机坐标系下的&lt;br&gt;3D手部模型" style="rounded=1;whiteSpace=wrap;html=1;fillColor=#d5e8d4;strokeColor=#82b366;fontSize=14;fontStyle=1" parent="1" vertex="1">
                    <mxGeometry x="260" y="120" width="140" height="60" as="geometry"/>
                </mxCell>
                <mxCell id="q7b9jXKkWBCrqFk2PePm-4" value="应用透视投影" style="rounded=1;whiteSpace=wrap;html=1;fillColor=#ffe6cc;strokeColor=#d79b00;fontSize=14;fontStyle=1" parent="1" vertex="1">
                    <mxGeometry x="480" y="120" width="140" height="60" as="geometry"/>
                </mxCell>
                <mxCell id="q7b9jXKkWBCrqFk2PePm-5" value="2D图像上的点" style="rounded=1;whiteSpace=wrap;html=1;fillColor=#dae8fc;strokeColor=#6c8ebf;fontSize=14;fontStyle=1" parent="1" vertex="1">
                    <mxGeometry x="680" y="120" width="120" height="60" as="geometry"/>
                </mxCell>
                <mxCell id="q7b9jXKkWBCrqFk2PePm-6" value="" style="endArrow=block;html=1;fontSize=12;exitX=1;exitY=0.5;exitDx=0;exitDy=0;entryX=0;entryY=0.5;entryDx=0;entryDy=0;endFill=1;strokeWidth=2;" parent="1" source="q7b9jXKkWBCrqFk2PePm-2" target="q7b9jXKkWBCrqFk2PePm-3" edge="1">
                    <mxGeometry width="50" height="50" relative="1" as="geometry">
                        <mxPoint x="190" y="200" as="sourcePoint"/>
                        <mxPoint x="240" y="150" as="targetPoint"/>
                    </mxGeometry>
                </mxCell>
                <mxCell id="q7b9jXKkWBCrqFk2PePm-7" value="" style="endArrow=block;html=1;fontSize=12;exitX=1;exitY=0.5;exitDx=0;exitDy=0;entryX=0;entryY=0.5;entryDx=0;entryDy=0;endFill=1;strokeWidth=2;" parent="1" source="q7b9jXKkWBCrqFk2PePm-3" target="q7b9jXKkWBCrqFk2PePm-4" edge="1">
                    <mxGeometry width="50" height="50" relative="1" as="geometry">
                        <mxPoint x="410" y="200" as="sourcePoint"/>
                        <mxPoint x="460" y="150" as="targetPoint"/>
                    </mxGeometry>
                </mxCell>
                <mxCell id="q7b9jXKkWBCrqFk2PePm-8" value="" style="endArrow=block;html=1;fontSize=12;exitX=1;exitY=0.5;exitDx=0;exitDy=0;entryX=0;entryY=0.5;entryDx=0;entryDy=0;endFill=1;strokeWidth=2;" parent="1" source="q7b9jXKkWBCrqFk2PePm-4" target="q7b9jXKkWBCrqFk2PePm-5" edge="1">
                    <mxGeometry width="50" height="50" relative="1" as="geometry">
                        <mxPoint x="630" y="200" as="sourcePoint"/>
                        <mxPoint x="680" y="150" as="targetPoint"/>
                    </mxGeometry>
                </mxCell>
                <mxCell id="q7b9jXKkWBCrqFk2PePm-9" value="应用相机变换&lt;br&gt;(减去相机位置)" style="text;html=1;strokeColor=none;fillColor=none;align=center;verticalAlign=middle;whiteSpace=wrap;rounded=0;fontSize=12;" parent="1" vertex="1">
                    <mxGeometry x="180" y="90" width="110" height="30" as="geometry"/>
                </mxCell>
                <mxCell id="q7b9jXKkWBCrqFk2PePm-10" value="应用相机内参&lt;br&gt;和透视除法" style="text;html=1;strokeColor=none;fillColor=none;align=center;verticalAlign=middle;whiteSpace=wrap;rounded=0;fontSize=12;" parent="1" vertex="1">
                    <mxGeometry x="400" y="90" width="80" height="30" as="geometry"/>
                </mxCell>
                <mxCell id="q7b9jXKkWBCrqFk2PePm-11" value="得到2D像素坐标" style="text;html=1;strokeColor=none;fillColor=none;align=center;verticalAlign=middle;whiteSpace=wrap;rounded=0;fontSize=12;" parent="1" vertex="1">
                    <mxGeometry x="620" y="90" width="80" height="30" as="geometry"/>
                </mxCell>
                <mxCell id="q7b9jXKkWBCrqFk2PePm-12" value="透视投影函数 (perspective_projection) 实现" style="swimlane;fontStyle=0;childLayout=stackLayout;horizontal=1;startSize=30;horizontalStack=0;resizeParent=1;resizeChild=0;resizeLast=0;collapsible=1;marginBottom=0;rounded=0;fontSize=14;fillColor=#fff2cc;strokeColor=#d6b656;" parent="1" vertex="1">
                    <mxGeometry x="120" y="220" width="600" height="140" as="geometry"/>
                </mxCell>
                <mxCell id="q7b9jXKkWBCrqFk2PePm-13" value="1. 全局坐标系→相机坐标系: points = points - camera_translation" style="text;strokeColor=none;fillColor=none;align=left;verticalAlign=middle;spacingLeft=4;spacingRight=4;overflow=hidden;points=[[0,0.5],[1,0.5]];portConstraint=eastwest;rotatable=0;fontSize=14;" parent="q7b9jXKkWBCrqFk2PePm-12" vertex="1">
                    <mxGeometry y="30" width="600" height="30" as="geometry"/>
                </mxCell>
                <mxCell id="q7b9jXKkWBCrqFk2PePm-14" value="2. 构建相机内参矩阵K (fx, fy, cx, cy)" style="text;strokeColor=none;fillColor=none;align=left;verticalAlign=middle;spacingLeft=4;spacingRight=4;overflow=hidden;points=[[0,0.5],[1,0.5]];portConstraint=eastwest;rotatable=0;fontSize=14;" parent="q7b9jXKkWBCrqFk2PePm-12" vertex="1">
                    <mxGeometry y="60" width="600" height="30" as="geometry"/>
                </mxCell>
                <mxCell id="q7b9jXKkWBCrqFk2PePm-15" value="3. 透视除法: projected_points = points / points[:,:,-1].unsqueeze(-1)" style="text;strokeColor=none;fillColor=none;align=left;verticalAlign=middle;spacingLeft=4;spacingRight=4;overflow=hidden;points=[[0,0.5],[1,0.5]];portConstraint=eastwest;rotatable=0;fontSize=14;" parent="q7b9jXKkWBCrqFk2PePm-12" vertex="1">
                    <mxGeometry y="90" width="600" height="30" as="geometry"/>
                </mxCell>
                <mxCell id="q7b9jXKkWBCrqFk2PePm-16" value="4. 应用相机内参: projected_points = torch.einsum(&#39;bij,bkj-&gt;bki&#39;, K, projected_points)" style="text;strokeColor=none;fillColor=none;align=left;verticalAlign=middle;spacingLeft=4;spacingRight=4;overflow=hidden;points=[[0,0.5],[1,0.5]];portConstraint=eastwest;rotatable=0;fontSize=14;" parent="q7b9jXKkWBCrqFk2PePm-12" vertex="1">
                    <mxGeometry y="120" width="600" height="20" as="geometry"/>
                </mxCell>
                <mxCell id="q7b9jXKkWBCrqFk2PePm-17" value="自定义投影函数代码中的错误" style="swimlane;fontStyle=0;childLayout=stackLayout;horizontal=1;startSize=30;horizontalStack=0;resizeParent=1;resizeChild=0;resizeLast=0;collapsible=1;marginBottom=0;rounded=0;fontSize=14;fillColor=#f8cecc;strokeColor=#b85450;" parent="1" vertex="1">
                    <mxGeometry x="120" y="380" width="600" height="170" as="geometry"/>
                </mxCell>
                <mxCell id="q7b9jXKkWBCrqFk2PePm-18" value="错误实现:" style="text;strokeColor=none;fillColor=none;align=left;verticalAlign=middle;spacingLeft=4;spacingRight=4;overflow=hidden;points=[[0,0.5],[1,0.5]];portConstraint=eastwest;rotatable=0;fontSize=14;fontStyle=1" parent="q7b9jXKkWBCrqFk2PePm-17" vertex="1">
                    <mxGeometry y="30" width="600" height="30" as="geometry"/>
                </mxCell>
                <mxCell id="q7b9jXKkWBCrqFk2PePm-19" value="# 应用平移 (错误方向)&#xa;points_3d_camera = points_3d + camera_translation_adjusted" style="text;strokeColor=#b85450;fillColor=#f8cecc;align=left;verticalAlign=middle;spacingLeft=4;spacingRight=4;overflow=hidden;points=[[0,0.5],[1,0.5]];portConstraint=eastwest;rotatable=0;fontSize=14;" parent="q7b9jXKkWBCrqFk2PePm-17" vertex="1">
                    <mxGeometry y="60" width="600" height="50" as="geometry"/>
                </mxCell>
                <mxCell id="q7b9jXKkWBCrqFk2PePm-20" value="正确实现:" style="text;strokeColor=none;fillColor=none;align=left;verticalAlign=middle;spacingLeft=4;spacingRight=4;overflow=hidden;points=[[0,0.5],[1,0.5]];portConstraint=eastwest;rotatable=0;fontSize=14;fontStyle=1" parent="q7b9jXKkWBCrqFk2PePm-17" vertex="1">
                    <mxGeometry y="110" width="600" height="30" as="geometry"/>
                </mxCell>
                <mxCell id="q7b9jXKkWBCrqFk2PePm-21" value="# 应用平移 (从全局坐标系转换到相机坐标系)&#xa;points_3d_camera = points_3d - camera_translation_adjusted" style="text;strokeColor=#82b366;fillColor=#d5e8d4;align=left;verticalAlign=middle;spacingLeft=4;spacingRight=4;overflow=hidden;points=[[0,0.5],[1,0.5]];portConstraint=eastwest;rotatable=0;fontSize=14;" parent="q7b9jXKkWBCrqFk2PePm-17" vertex="1">
                    <mxGeometry y="140" width="600" height="30" as="geometry"/>
                </mxCell>
                <mxCell id="q7b9jXKkWBCrqFk2PePm-22" value="transformed_keypoints" style="text;html=1;strokeColor=none;fillColor=none;align=center;verticalAlign=middle;whiteSpace=wrap;rounded=0;fontSize=12;" parent="1" vertex="1">
                    <mxGeometry x="40" y="90" width="140" height="30" as="geometry"/>
                </mxCell>
                <mxCell id="q7b9jXKkWBCrqFk2PePm-23" value="坐标系转换的重要公式" style="swimlane;fontStyle=0;childLayout=stackLayout;horizontal=1;startSize=30;horizontalStack=0;resizeParent=1;resizeChild=0;resizeLast=0;collapsible=1;marginBottom=0;rounded=0;fontSize=14;fillColor=#f5f5f5;strokeColor=#666666;fontColor=#333333;" parent="1" vertex="1">
                    <mxGeometry x="120" y="570" width="600" height="100" as="geometry"/>
                </mxCell>
                <mxCell id="q7b9jXKkWBCrqFk2PePm-24" value="1. 相机坐标系 → 全局坐标系: 点全局 = 点相机 + 相机位置" style="text;strokeColor=none;fillColor=none;align=left;verticalAlign=middle;spacingLeft=4;spacingRight=4;overflow=hidden;points=[[0,0.5],[1,0.5]];portConstraint=eastwest;rotatable=0;fontSize=14;" parent="q7b9jXKkWBCrqFk2PePm-23" vertex="1">
                    <mxGeometry y="30" width="600" height="30" as="geometry"/>
                </mxCell>
                <mxCell id="q7b9jXKkWBCrqFk2PePm-25" value="2. 全局坐标系 → 相机坐标系: 点相机 = 点全局 - 相机位置" style="text;strokeColor=none;fillColor=none;align=left;verticalAlign=middle;spacingLeft=4;spacingRight=4;overflow=hidden;points=[[0,0.5],[1,0.5]];portConstraint=eastwest;rotatable=0;fontSize=14;" parent="q7b9jXKkWBCrqFk2PePm-23" vertex="1">
                    <mxGeometry y="60" width="600" height="40" as="geometry"/>
                </mxCell>
            </root>
        </mxGraphModel>
    </diagram>
</mxfile>